<svg width="190" height="43" viewBox="0 0 190 43" fill="none" xmlns="http://www.w3.org/2000/svg">
<path d="M19.5117 30.4718C22.3061 29.7231 24.8352 28.2072 26.8129 26.0957C28.7905 23.9842 30.1378 21.3613 30.7022 18.5239C31.2666 15.6865 31.0256 12.7477 30.0065 10.0401C28.9875 7.33253 27.231 4.96418 24.9358 3.20302C22.6406 1.44187 19.8984 0.358202 17.0193 0.0746366C14.1402 -0.208928 11.2392 0.318924 8.64452 1.59847C6.04986 2.87802 3.86507 4.85819 2.33737 7.31495C0.809657 9.77171 -2.52916e-07 12.607 0 15.5L15.5 15.5L19.5117 30.4718Z" fill="white"/>
<path d="M49.88 8.04V10.3H46.16V22H43.36V10.3H39.64V8.04H49.88ZM56.843 22.18C55.7763 22.18 54.8163 21.9467 53.963 21.48C53.1096 21 52.4363 20.3267 51.943 19.46C51.463 18.5933 51.223 17.5933 51.223 16.46C51.223 15.3267 51.4696 14.3267 51.963 13.46C52.4696 12.5933 53.1563 11.9267 54.023 11.46C54.8896 10.98 55.8563 10.74 56.923 10.74C57.9896 10.74 58.9563 10.98 59.823 11.46C60.6896 11.9267 61.3696 12.5933 61.863 13.46C62.3696 14.3267 62.623 15.3267 62.623 16.46C62.623 17.5933 62.363 18.5933 61.843 19.46C61.3363 20.3267 60.643 21 59.763 21.48C58.8963 21.9467 57.923 22.18 56.843 22.18ZM56.843 19.74C57.3496 19.74 57.823 19.62 58.263 19.38C58.7163 19.1267 59.0763 18.7533 59.343 18.26C59.6096 17.7667 59.743 17.1667 59.743 16.46C59.743 15.4067 59.463 14.6 58.903 14.04C58.3563 13.4667 57.683 13.18 56.883 13.18C56.083 13.18 55.4096 13.4667 54.863 14.04C54.3296 14.6 54.063 15.4067 54.063 16.46C54.063 17.5133 54.323 18.3267 54.843 18.9C55.3763 19.46 56.043 19.74 56.843 19.74ZM63.9569 16.42C63.9569 15.3 64.1769 14.3067 64.6169 13.44C65.0702 12.5733 65.6835 11.9067 66.4569 11.44C67.2302 10.9733 68.0902 10.74 69.0369 10.74C69.7569 10.74 70.4435 10.9 71.0969 11.22C71.7502 11.5267 72.2702 11.94 72.6569 12.46V7.2H75.4969V22H72.6569V20.36C72.3102 20.9067 71.8235 21.3467 71.1969 21.68C70.5702 22.0133 69.8435 22.18 69.0169 22.18C68.0835 22.18 67.2302 21.94 66.4569 21.46C65.6835 20.98 65.0702 20.3067 64.6169 19.44C64.1769 18.56 63.9569 17.5533 63.9569 16.42ZM72.6769 16.46C72.6769 15.78 72.5435 15.2 72.2769 14.72C72.0102 14.2267 71.6502 13.8533 71.1969 13.6C70.7435 13.3333 70.2569 13.2 69.7369 13.2C69.2169 13.2 68.7369 13.3267 68.2969 13.58C67.8569 13.8333 67.4969 14.2067 67.2169 14.7C66.9502 15.18 66.8169 15.7533 66.8169 16.42C66.8169 17.0867 66.9502 17.6733 67.2169 18.18C67.4969 18.6733 67.8569 19.0533 68.2969 19.32C68.7502 19.5867 69.2302 19.72 69.7369 19.72C70.2569 19.72 70.7435 19.5933 71.1969 19.34C71.6502 19.0733 72.0102 18.7 72.2769 18.22C72.5435 17.7267 72.6769 17.14 72.6769 16.46ZM83.1516 22.18C82.0849 22.18 81.1249 21.9467 80.2716 21.48C79.4182 21 78.7449 20.3267 78.2516 19.46C77.7716 18.5933 77.5316 17.5933 77.5316 16.46C77.5316 15.3267 77.7782 14.3267 78.2716 13.46C78.7782 12.5933 79.4649 11.9267 80.3316 11.46C81.1982 10.98 82.1649 10.74 83.2316 10.74C84.2982 10.74 85.2649 10.98 86.1316 11.46C86.9982 11.9267 87.6782 12.5933 88.1716 13.46C88.6782 14.3267 88.9316 15.3267 88.9316 16.46C88.9316 17.5933 88.6716 18.5933 88.1516 19.46C87.6449 20.3267 86.9516 21 86.0716 21.48C85.2049 21.9467 84.2316 22.18 83.1516 22.18ZM83.1516 19.74C83.6582 19.74 84.1316 19.62 84.5716 19.38C85.0249 19.1267 85.3849 18.7533 85.6516 18.26C85.9182 17.7667 86.0516 17.1667 86.0516 16.46C86.0516 15.4067 85.7716 14.6 85.2116 14.04C84.6649 13.4667 83.9916 13.18 83.1916 13.18C82.3916 13.18 81.7182 13.4667 81.1716 14.04C80.6382 14.6 80.3716 15.4067 80.3716 16.46C80.3716 17.5133 80.6316 18.3267 81.1516 18.9C81.6849 19.46 82.3516 19.74 83.1516 19.74ZM110.971 8.04V22H108.171V12.92L104.431 22H102.311L98.5511 12.92V22H95.7511V8.04H98.9311L103.371 18.42L107.811 8.04H110.971ZM113.019 16.42C113.019 15.3 113.239 14.3067 113.679 13.44C114.133 12.5733 114.739 11.9067 115.499 11.44C116.273 10.9733 117.133 10.74 118.079 10.74C118.906 10.74 119.626 10.9067 120.239 11.24C120.866 11.5733 121.366 11.9933 121.739 12.5V10.92H124.559V22H121.739V20.38C121.379 20.9 120.879 21.3333 120.239 21.68C119.613 22.0133 118.886 22.18 118.059 22.18C117.126 22.18 116.273 21.94 115.499 21.46C114.739 20.98 114.133 20.3067 113.679 19.44C113.239 18.56 113.019 17.5533 113.019 16.42ZM121.739 16.46C121.739 15.78 121.606 15.2 121.339 14.72C121.073 14.2267 120.713 13.8533 120.259 13.6C119.806 13.3333 119.319 13.2 118.799 13.2C118.279 13.2 117.799 13.3267 117.359 13.58C116.919 13.8333 116.559 14.2067 116.279 14.7C116.013 15.18 115.879 15.7533 115.879 16.42C115.879 17.0867 116.013 17.6733 116.279 18.18C116.559 18.6733 116.919 19.0533 117.359 19.32C117.813 19.5867 118.293 19.72 118.799 19.72C119.319 19.72 119.806 19.5933 120.259 19.34C120.713 19.0733 121.073 18.7 121.339 18.22C121.606 17.7267 121.739 17.14 121.739 16.46ZM126.574 16.46C126.574 15.3133 126.807 14.3133 127.274 13.46C127.741 12.5933 128.387 11.9267 129.214 11.46C130.041 10.98 130.987 10.74 132.054 10.74C133.427 10.74 134.561 11.0867 135.454 11.78C136.361 12.46 136.967 13.42 137.274 14.66H134.254C134.094 14.18 133.821 13.8067 133.434 13.54C133.061 13.26 132.594 13.12 132.034 13.12C131.234 13.12 130.601 13.4133 130.134 14C129.667 14.5733 129.434 15.3933 129.434 16.46C129.434 17.5133 129.667 18.3333 130.134 18.92C130.601 19.4933 131.234 19.78 132.034 19.78C133.167 19.78 133.907 19.2733 134.254 18.26H137.274C136.967 19.46 136.361 20.4133 135.454 21.12C134.547 21.8267 133.414 22.18 132.054 22.18C130.987 22.18 130.041 21.9467 129.214 21.48C128.387 21 127.741 20.3333 127.274 19.48C126.807 18.6133 126.574 17.6067 126.574 16.46ZM145.565 10.76C146.405 10.76 147.152 10.9467 147.805 11.32C148.459 11.68 148.965 12.22 149.325 12.94C149.699 13.6467 149.885 14.5 149.885 15.5V22H147.085V15.88C147.085 15 146.865 14.3267 146.425 13.86C145.985 13.38 145.385 13.14 144.625 13.14C143.852 13.14 143.239 13.38 142.785 13.86C142.345 14.3267 142.125 15 142.125 15.88V22H139.325V7.2H142.125V12.3C142.485 11.82 142.965 11.4467 143.565 11.18C144.165 10.9 144.832 10.76 145.565 10.76ZM153.968 9.6C153.475 9.6 153.061 9.44667 152.728 9.14C152.408 8.82 152.248 8.42667 152.248 7.96C152.248 7.49333 152.408 7.10667 152.728 6.8C153.061 6.48 153.475 6.32 153.968 6.32C154.461 6.32 154.868 6.48 155.188 6.8C155.521 7.10667 155.688 7.49333 155.688 7.96C155.688 8.42667 155.521 8.82 155.188 9.14C154.868 9.44667 154.461 9.6 153.968 9.6ZM155.348 10.92V22H152.548V10.92H155.348ZM164.254 10.76C165.574 10.76 166.641 11.18 167.454 12.02C168.268 12.8467 168.674 14.0067 168.674 15.5V22H165.874V15.88C165.874 15 165.654 14.3267 165.214 13.86C164.774 13.38 164.174 13.14 163.414 13.14C162.641 13.14 162.028 13.38 161.574 13.86C161.134 14.3267 160.914 15 160.914 15.88V22H158.114V10.92H160.914V12.3C161.288 11.82 161.761 11.4467 162.334 11.18C162.921 10.9 163.561 10.76 164.254 10.76ZM181.637 16.22C181.637 16.62 181.61 16.98 181.557 17.3H173.457C173.524 18.1 173.804 18.7267 174.297 19.18C174.79 19.6333 175.397 19.86 176.117 19.86C177.157 19.86 177.897 19.4133 178.337 18.52H181.357C181.037 19.5867 180.424 20.4667 179.517 21.16C178.61 21.84 177.497 22.18 176.177 22.18C175.11 22.18 174.15 21.9467 173.297 21.48C172.457 21 171.797 20.3267 171.317 19.46C170.85 18.5933 170.617 17.5933 170.617 16.46C170.617 15.3133 170.85 14.3067 171.317 13.44C171.784 12.5733 172.437 11.9067 173.277 11.44C174.117 10.9733 175.084 10.74 176.177 10.74C177.23 10.74 178.17 10.9667 178.997 11.42C179.837 11.8733 180.484 12.52 180.937 13.36C181.404 14.1867 181.637 15.14 181.637 16.22ZM178.737 15.42C178.724 14.7 178.464 14.1267 177.957 13.7C177.45 13.26 176.83 13.04 176.097 13.04C175.404 13.04 174.817 13.2533 174.337 13.68C173.87 14.0933 173.584 14.6733 173.477 15.42H178.737Z" fill="white"/>
</svg>
